<?xml version="1.0" encoding="utf-8"?>
<!-- Generator: Adobe Illustrator 23.0.1, SVG Export Plug-In . SVG Version: 6.00 Build 0)  -->
<svg version="1.1" id="Layer_1" xmlns="http://www.w3.org/2000/svg" xmlns:xlink="http://www.w3.org/1999/xlink" x="0px" y="0px"
	 viewBox="0 0 595.28 841.89" style="enable-background:new 0 0 595.28 841.89;" xml:space="preserve">
<style type="text/css">
	.st0{fill-rule:evenodd;clip-rule:evenodd;fill:#ED1C24;}
	.st1{fill:#FFFFFF;}
	.st2{fill-rule:evenodd;clip-rule:evenodd;fill:#FFFFFF;}
	.st3{fill-rule:evenodd;clip-rule:evenodd;}
</style>
<g>
	<path d="M518.29,421.5c0,121.78-98.72,220.5-220.5,220.5c-60.89,0-116.02-24.68-155.92-64.58c-39.9-39.9-64.58-95.03-64.58-155.92
		s24.68-116.02,64.58-155.92c39.9-39.9,95.03-64.58,155.92-64.58c60.89,0,116.02,24.68,155.92,64.58
		C493.61,305.48,518.29,360.61,518.29,421.5 M297.79,627.6c113.83,0,206.1-92.28,206.1-206.1c0-56.91-23.07-108.44-60.37-145.74
		c-37.3-37.3-88.82-60.37-145.74-60.37c-56.91,0-108.44,23.07-145.74,60.37c-37.3,37.3-60.37,88.82-60.37,145.74
		s23.07,108.44,60.37,145.74C189.35,604.53,240.87,627.6,297.79,627.6z"/>
	<path class="st0" d="M297.79,617.67c108.34,0,196.17-87.83,196.17-196.17c0-108.34-87.83-196.17-196.17-196.17
		c-108.34,0-196.17,87.83-196.17,196.17C101.62,529.84,189.45,617.67,297.79,617.67"/>
	<path class="st1" d="M399.63,478.19v64.46h28.53v15.97h-44.61v-80.43H399.63z M358.63,509.1v-30.8h16.09v80.43h-16.09v-33.55h-28.3
		v33.55h-16.09v-80.43h16.09v30.8H358.63z M289.34,558.74h16.09v-80.55h-5.63l-30.62,30.56l-30.74-30.56h-5.52v80.55h16.09v-49.29
		l20.17,21.03l20.17-21.03V558.74z M225.83,478.19v16.09h-36.11v14.82h29.56v16.09h-29.56v33.55h-16.09v-80.55H225.83z"/>
	<path class="st2" d="M297.76,249.87l55.09,95.42l54.99,95.25c-9.54-9.18-22.5-14.82-36.79-14.82c-14.21,0-27.11,5.59-36.63,14.68
		c-9.53-9.09-22.43-14.68-36.64-14.68c-14.23,0-27.15,5.6-36.69,14.72c-9.53-9.12-22.45-14.72-36.68-14.72s-27.15,5.6-36.68,14.72
		l54.94-95.15L297.76,249.87z"/>
	<polygon class="st3" points="297.79,266.28 313.67,293.8 329.56,321.31 297.79,321.31 266.02,321.31 281.9,293.8 	"/>
</g>
</svg>
