<svg id="visual" viewBox="0 0 960 150" width="960" height="150" xmlns="http://www.w3.org/2000/svg" xmlns:xlink="http://www.w3.org/1999/xlink" version="1.1"><rect x="0" y="0" width="960" height="150" fill="#ffffff"></rect><path d="M0 53L22.8 52.2C45.7 51.3 91.3 49.7 137 46.2C182.7 42.7 228.3 37.3 274 37.3C319.7 37.3 365.3 42.7 411.2 44.8C457 47 503 46 548.8 47.8C594.7 49.7 640.3 54.3 686 54.3C731.7 54.3 777.3 49.7 823 46C868.7 42.3 914.3 39.7 937.2 38.3L960 37L960 0L937.2 0C914.3 0 868.7 0 823 0C777.3 0 731.7 0 686 0C640.3 0 594.7 0 548.8 0C503 0 457 0 411.2 0C365.3 0 319.7 0 274 0C228.3 0 182.7 0 137 0C91.3 0 45.7 0 22.8 0L0 0Z" fill="#b6b6b6"></path><path d="M0 36L22.8 37.2C45.7 38.3 91.3 40.7 137 41.8C182.7 43 228.3 43 274 43C319.7 43 365.3 43 411.2 39.3C457 35.7 503 28.3 548.8 25.2C594.7 22 640.3 23 686 26.3C731.7 29.7 777.3 35.3 823 37C868.7 38.7 914.3 36.3 937.2 35.2L960 34L960 0L937.2 0C914.3 0 868.7 0 823 0C777.3 0 731.7 0 686 0C640.3 0 594.7 0 548.8 0C503 0 457 0 411.2 0C365.3 0 319.7 0 274 0C228.3 0 182.7 0 137 0C91.3 0 45.7 0 22.8 0L0 0Z" fill="#ae7671"></path><path d="M0 17L22.8 16.2C45.7 15.3 91.3 13.7 137 12.2C182.7 10.7 228.3 9.3 274 10.7C319.7 12 365.3 16 411.2 16.7C457 17.3 503 14.7 548.8 15.7C594.7 16.7 640.3 21.3 686 23.2C731.7 25 777.3 24 823 21.2C868.7 18.3 914.3 13.7 937.2 11.3L960 9L960 0L937.2 0C914.3 0 868.7 0 823 0C777.3 0 731.7 0 686 0C640.3 0 594.7 0 548.8 0C503 0 457 0 411.2 0C365.3 0 319.7 0 274 0C228.3 0 182.7 0 137 0C91.3 0 45.7 0 22.8 0L0 0Z" fill="#993233"></path></svg>