<svg id="visual" viewBox="0 0 960 150" width="960" height="150" xmlns="http://www.w3.org/2000/svg" xmlns:xlink="http://www.w3.org/1999/xlink" version="1.1"><rect x="0" y="0" width="960" height="150" fill="#ffffff"></rect><path d="M0 72L22.8 73.7C45.7 75.3 91.3 78.7 137 85C182.7 91.3 228.3 100.7 274 103.3C319.7 106 365.3 102 411.2 95.5C457 89 503 80 548.8 76.8C594.7 73.7 640.3 76.3 686 83.5C731.7 90.7 777.3 102.3 823 103.3C868.7 104.3 914.3 94.7 937.2 89.8L960 85L960 151L937.2 151C914.3 151 868.7 151 823 151C777.3 151 731.7 151 686 151C640.3 151 594.7 151 548.8 151C503 151 457 151 411.2 151C365.3 151 319.7 151 274 151C228.3 151 182.7 151 137 151C91.3 151 45.7 151 22.8 151L0 151Z" fill="#212429" stroke-linecap="round" stroke-linejoin="miter"></path></svg>