<svg id="visual" viewBox="0 0 960 80" width="960" height="80" xmlns="http://www.w3.org/2000/svg" xmlns:xlink="http://www.w3.org/1999/xlink" version="1.1"><rect x="0" y="0" width="960" height="80" fill="#ffffff"></rect><path d="M0 47L22.8 48.8C45.7 50.7 91.3 54.3 137 55.8C182.7 57.3 228.3 56.7 274 56.8C319.7 57 365.3 58 411.2 56C457 54 503 49 548.8 49.2C594.7 49.3 640.3 54.7 686 53.8C731.7 53 777.3 46 823 43.8C868.7 41.7 914.3 44.3 937.2 45.7L960 47L960 0L937.2 0C914.3 0 868.7 0 823 0C777.3 0 731.7 0 686 0C640.3 0 594.7 0 548.8 0C503 0 457 0 411.2 0C365.3 0 319.7 0 274 0C228.3 0 182.7 0 137 0C91.3 0 45.7 0 22.8 0L0 0Z" fill="#d2d2d2"></path><path d="M0 34L22.8 32.7C45.7 31.3 91.3 28.7 137 30C182.7 31.3 228.3 36.7 274 39.5C319.7 42.3 365.3 42.7 411.2 39.7C457 36.7 503 30.3 548.8 27.5C594.7 24.7 640.3 25.3 686 27.3C731.7 29.3 777.3 32.7 823 34.7C868.7 36.7 914.3 37.3 937.2 37.7L960 38L960 0L937.2 0C914.3 0 868.7 0 823 0C777.3 0 731.7 0 686 0C640.3 0 594.7 0 548.8 0C503 0 457 0 411.2 0C365.3 0 319.7 0 274 0C228.3 0 182.7 0 137 0C91.3 0 45.7 0 22.8 0L0 0Z" fill="#737578"></path><path d="M0 12L22.8 14.5C45.7 17 91.3 22 137 22.8C182.7 23.7 228.3 20.3 274 17.8C319.7 15.3 365.3 13.7 411.2 14.3C457 15 503 18 548.8 18.5C594.7 19 640.3 17 686 16C731.7 15 777.3 15 823 16.3C868.7 17.7 914.3 20.3 937.2 21.7L960 23L960 0L937.2 0C914.3 0 868.7 0 823 0C777.3 0 731.7 0 686 0C640.3 0 594.7 0 548.8 0C503 0 457 0 411.2 0C365.3 0 319.7 0 274 0C228.3 0 182.7 0 137 0C91.3 0 45.7 0 22.8 0L0 0Z" fill="#212429"></path></svg>