<svg id="visual" viewBox="0 0 960 50" width="960" height="50" xmlns="http://www.w3.org/2000/svg" xmlns:xlink="http://www.w3.org/1999/xlink" version="1.1"><rect x="0" y="0" width="960" height="50" fill="#212429"></rect><path d="M0 12L26.7 12.3C53.3 12.7 106.7 13.3 160 18.8C213.3 24.3 266.7 34.7 320 36C373.3 37.3 426.7 29.7 480 23C533.3 16.3 586.7 10.7 640 9.2C693.3 7.7 746.7 10.3 800 15.5C853.3 20.7 906.7 28.3 933.3 32.2L960 36L960 51L933.3 51C906.7 51 853.3 51 800 51C746.7 51 693.3 51 640 51C586.7 51 533.3 51 480 51C426.7 51 373.3 51 320 51C266.7 51 213.3 51 160 51C106.7 51 53.3 51 26.7 51L0 51Z" fill="#000000" stroke-linecap="round" stroke-linejoin="miter"></path></svg>