<svg id="visual" viewBox="0 0 1400 620" width="1400" height="620" xmlns="http://www.w3.org/2000/svg" xmlns:xlink="http://www.w3.org/1999/xlink" version="1.1"><rect x="0" y="0" width="1400" height="620" fill="#fff"></rect><defs><linearGradient id="grad1_0" x1="55.7%" y1="0%" x2="100%" y2="100%"><stop offset="4.83870967741935%" stop-color="#e0e0e0" stop-opacity="1"></stop><stop offset="95.16129032258065%" stop-color="#e0e0e0" stop-opacity="1"></stop></linearGradient></defs><defs><linearGradient id="grad1_1" x1="55.7%" y1="0%" x2="100%" y2="100%"><stop offset="4.83870967741935%" stop-color="#e0e0e0" stop-opacity="1"></stop><stop offset="95.16129032258065%" stop-color="#ffffff" stop-opacity="1"></stop></linearGradient></defs><defs><linearGradient id="grad2_0" x1="0%" y1="0%" x2="44.3%" y2="100%"><stop offset="4.83870967741935%" stop-color="#e0e0e0" stop-opacity="1"></stop><stop offset="95.16129032258065%" stop-color="#e0e0e0" stop-opacity="1"></stop></linearGradient></defs><defs><linearGradient id="grad2_1" x1="0%" y1="0%" x2="44.3%" y2="100%"><stop offset="4.83870967741935%" stop-color="#ffffff" stop-opacity="1"></stop><stop offset="95.16129032258065%" stop-color="#e0e0e0" stop-opacity="1"></stop></linearGradient></defs><g transform="translate(1400, 0)"><path d="M0 558C-63 525.3 -125.9 492.6 -194.8 470.3C-263.6 447.9 -338.3 435.8 -394.6 394.6C-450.8 353.3 -488.6 283 -512.8 212.4C-536.9 141.8 -547.5 70.9 -558 0L0 0Z" fill="#efefef"></path><path d="M0 279C-31.5 262.7 -63 246.3 -97.4 235.1C-131.8 223.9 -169.2 217.9 -197.3 197.3C-225.4 176.7 -244.3 141.5 -256.4 106.2C-268.5 70.9 -273.7 35.4 -279 0L0 0Z" fill="#e0e0e0"></path></g><g transform="translate(0, 620)"><path d="M0 -558C58.8 -513.2 117.5 -468.4 184.5 -445.3C251.4 -422.2 326.6 -420.8 386.1 -386.1C445.6 -351.4 489.5 -283.4 515.5 -213.5C541.6 -143.6 549.8 -71.8 558 0L0 0Z" fill="#efefef"></path><path d="M0 -279C29.4 -256.6 58.8 -234.2 92.2 -222.7C125.7 -211.1 163.3 -210.4 193 -193C222.8 -175.7 244.7 -141.7 257.8 -106.8C270.8 -71.8 274.9 -35.9 279 0L0 0Z" fill="#e0e0e0"></path></g></svg>