<svg id="visual" viewBox="0 0 1500 580" width="1500" height="580" xmlns="http://www.w3.org/2000/svg" xmlns:xlink="http://www.w3.org/1999/xlink" version="1.1"><rect x="0" y="0" width="1500" height="580" fill="#fff"></rect><defs><linearGradient id="grad1_0" x1="61.3%" y1="0%" x2="100%" y2="100%"><stop offset="-1.724137931034484%" stop-color="#f4f4f4" stop-opacity="1"></stop><stop offset="101.72413793103448%" stop-color="#f4f4f4" stop-opacity="1"></stop></linearGradient></defs><defs><linearGradient id="grad1_1" x1="61.3%" y1="0%" x2="100%" y2="100%"><stop offset="-1.724137931034484%" stop-color="#f4f4f4" stop-opacity="1"></stop><stop offset="101.72413793103448%" stop-color="#ffffff" stop-opacity="1"></stop></linearGradient></defs><defs><linearGradient id="grad2_0" x1="0%" y1="0%" x2="38.7%" y2="100%"><stop offset="-1.724137931034484%" stop-color="#f4f4f4" stop-opacity="1"></stop><stop offset="101.72413793103448%" stop-color="#f4f4f4" stop-opacity="1"></stop></linearGradient></defs><defs><linearGradient id="grad2_1" x1="0%" y1="0%" x2="38.7%" y2="100%"><stop offset="-1.724137931034484%" stop-color="#ffffff" stop-opacity="1"></stop><stop offset="101.72413793103448%" stop-color="#f4f4f4" stop-opacity="1"></stop></linearGradient></defs><g transform="translate(1500, 0)"><path d="M0 493C-83.9 476.9 -167.8 460.8 -243.5 421.8C-319.2 382.7 -386.7 320.6 -427 246.5C-467.2 172.4 -480.1 86.2 -493 0L0 0Z" fill="#f9f9f9"></path><path d="M0 246.5C-41.9 238.5 -83.9 230.4 -121.7 210.9C-159.6 191.3 -193.4 160.3 -213.5 123.3C-233.6 86.2 -240 43.1 -246.5 0L0 0Z" fill="#f4f4f4"></path></g><g transform="translate(0, 580)"><path d="M0 -493C96.1 -485.8 192.2 -478.6 246.5 -427C300.8 -375.3 313.2 -279.1 347.3 -200.5C381.4 -121.9 437.2 -61 493 0L0 0Z" fill="#f9f9f9"></path><path d="M0 -246.5C48.1 -242.9 96.1 -239.3 123.2 -213.5C150.4 -187.6 156.6 -139.5 173.6 -100.3C190.7 -61 218.6 -30.5 246.5 0L0 0Z" fill="#f4f4f4"></path></g></svg>