<svg id="visual" viewBox="0 0 1400 620" width="1400" height="620" xmlns="http://www.w3.org/2000/svg" xmlns:xlink="http://www.w3.org/1999/xlink" version="1.1"><rect x="0" y="0" width="1400" height="620" fill="#fff"></rect><defs><linearGradient id="grad1_0" x1="55.7%" y1="100%" x2="100%" y2="0%"><stop offset="4.83870967741935%" stop-color="#e7e7e7" stop-opacity="1"></stop><stop offset="95.16129032258065%" stop-color="#e7e7e7" stop-opacity="1"></stop></linearGradient></defs><defs><linearGradient id="grad1_1" x1="55.7%" y1="100%" x2="100%" y2="0%"><stop offset="4.83870967741935%" stop-color="#e7e7e7" stop-opacity="1"></stop><stop offset="95.16129032258065%" stop-color="#ffffff" stop-opacity="1"></stop></linearGradient></defs><defs><linearGradient id="grad2_0" x1="0%" y1="100%" x2="44.3%" y2="0%"><stop offset="4.83870967741935%" stop-color="#e7e7e7" stop-opacity="1"></stop><stop offset="95.16129032258065%" stop-color="#e7e7e7" stop-opacity="1"></stop></linearGradient></defs><defs><linearGradient id="grad2_1" x1="0%" y1="100%" x2="44.3%" y2="0%"><stop offset="4.83870967741935%" stop-color="#ffffff" stop-opacity="1"></stop><stop offset="95.16129032258065%" stop-color="#e7e7e7" stop-opacity="1"></stop></linearGradient></defs><g transform="translate(1400, 620)"><path d="M-558 0C-525.3 -63 -492.6 -125.9 -470.3 -194.8C-447.9 -263.6 -435.8 -338.3 -394.6 -394.6C-353.3 -450.8 -283 -488.6 -212.4 -512.8C-141.8 -536.9 -70.9 -547.5 0 -558L0 0Z" fill="#f3f3f3"></path><path d="M-279 0C-262.7 -31.5 -246.3 -63 -235.1 -97.4C-223.9 -131.8 -217.9 -169.2 -197.3 -197.3C-176.7 -225.4 -141.5 -244.3 -106.2 -256.4C-70.9 -268.5 -35.4 -273.7 0 -279L0 0Z" fill="#e7e7e7"></path></g><g transform="translate(0, 0)"><path d="M558 0C513.2 58.8 468.4 117.5 445.3 184.5C422.2 251.4 420.8 326.6 386.1 386.1C351.4 445.6 283.4 489.5 213.5 515.5C143.6 541.6 71.8 549.8 0 558L0 0Z" fill="#f3f3f3"></path><path d="M279 0C256.6 29.4 234.2 58.8 222.7 92.2C211.1 125.7 210.4 163.3 193 193C175.7 222.8 141.7 244.7 106.8 257.8C71.8 270.8 35.9 274.9 0 279L0 0Z" fill="#e7e7e7"></path></g></svg>