<svg id="visual" viewBox="0 0 1400 620" width="1400" height="620" xmlns="http://www.w3.org/2000/svg" xmlns:xlink="http://www.w3.org/1999/xlink" version="1.1"><rect x="0" y="0" width="1400" height="620" fill="#fff"></rect><defs><linearGradient id="grad1_0" x1="55.7%" y1="100%" x2="100%" y2="0%"><stop offset="4.83870967741935%" stop-color="#d7d7d7" stop-opacity="1"></stop><stop offset="95.16129032258065%" stop-color="#d7d7d7" stop-opacity="1"></stop></linearGradient></defs><defs><linearGradient id="grad1_1" x1="55.7%" y1="100%" x2="100%" y2="0%"><stop offset="4.83870967741935%" stop-color="#d7d7d7" stop-opacity="1"></stop><stop offset="95.16129032258065%" stop-color="#ffffff" stop-opacity="1"></stop></linearGradient></defs><defs><linearGradient id="grad2_0" x1="0%" y1="100%" x2="44.3%" y2="0%"><stop offset="4.83870967741935%" stop-color="#d7d7d7" stop-opacity="1"></stop><stop offset="95.16129032258065%" stop-color="#d7d7d7" stop-opacity="1"></stop></linearGradient></defs><defs><linearGradient id="grad2_1" x1="0%" y1="100%" x2="44.3%" y2="0%"><stop offset="4.83870967741935%" stop-color="#ffffff" stop-opacity="1"></stop><stop offset="95.16129032258065%" stop-color="#d7d7d7" stop-opacity="1"></stop></linearGradient></defs><g transform="translate(1400, 620)"><path d="M-558 0C-556.3 -79.4 -554.6 -158.7 -515.5 -213.5C-476.5 -268.3 -400.1 -298.6 -345.8 -345.8C-291.4 -392.9 -259.1 -457 -205.1 -495.2C-151.2 -533.4 -75.6 -545.7 0 -558L0 0Z" fill="#ebebeb"></path><path d="M-279 0C-278.1 -39.7 -277.3 -79.4 -257.8 -106.8C-238.2 -134.2 -200.1 -149.3 -172.9 -172.9C-145.7 -196.5 -129.5 -228.5 -102.6 -247.6C-75.6 -266.7 -37.8 -272.8 0 -279L0 0Z" fill="#d7d7d7"></path></g><g transform="translate(0, 0)"><path d="M558 0C555.1 78.1 552.1 156.2 515.5 213.5C478.9 270.8 408.7 307.3 354.3 354.3C299.8 401.2 261.1 458.6 204.7 494.3C148.3 530 74.2 544 0 558L0 0Z" fill="#ebebeb"></path><path d="M279 0C277.5 39.1 276.1 78.1 257.8 106.8C239.5 135.4 204.4 153.7 177.1 177.1C149.9 200.6 130.6 229.3 102.4 247.1C74.2 265 37.1 272 0 279L0 0Z" fill="#d7d7d7"></path></g></svg>