<svg id="visual" viewBox="0 0 1500 632" width="1500" height="632" xmlns="http://www.w3.org/2000/svg" xmlns:xlink="http://www.w3.org/1999/xlink" version="1.1"><rect x="0" y="0" width="1500" height="632" fill="#fff"></rect><defs><linearGradient id="grad1_0" x1="57.9%" y1="100%" x2="100%" y2="0%"><stop offset="2.531645569620249%" stop-color="#f4f4f4" stop-opacity="1"></stop><stop offset="97.46835443037975%" stop-color="#f4f4f4" stop-opacity="1"></stop></linearGradient></defs><defs><linearGradient id="grad1_1" x1="57.9%" y1="100%" x2="100%" y2="0%"><stop offset="2.531645569620249%" stop-color="#f4f4f4" stop-opacity="1"></stop><stop offset="97.46835443037975%" stop-color="#ffffff" stop-opacity="1"></stop></linearGradient></defs><defs><linearGradient id="grad2_0" x1="0%" y1="100%" x2="42.1%" y2="0%"><stop offset="2.531645569620249%" stop-color="#f4f4f4" stop-opacity="1"></stop><stop offset="97.46835443037975%" stop-color="#f4f4f4" stop-opacity="1"></stop></linearGradient></defs><defs><linearGradient id="grad2_1" x1="0%" y1="100%" x2="42.1%" y2="0%"><stop offset="2.531645569620249%" stop-color="#ffffff" stop-opacity="1"></stop><stop offset="97.46835443037975%" stop-color="#f4f4f4" stop-opacity="1"></stop></linearGradient></defs><g transform="translate(1500, 632)"><path d="M-537.2 0C-526.8 -100.3 -516.5 -200.7 -465.2 -268.6C-414 -336.5 -321.9 -372 -237.5 -411.4C-153.1 -450.7 -76.6 -494 0 -537.2L0 0Z" fill="#f9f9f9"></path><path d="M-268.6 0C-263.4 -50.2 -258.2 -100.3 -232.6 -134.3C-207 -168.3 -160.9 -186 -118.8 -205.7C-76.6 -225.4 -38.3 -247 0 -268.6L0 0Z" fill="#f4f4f4"></path></g><g transform="translate(0, 0)"><path d="M537.2 0C526.1 99.1 515 198.1 465.2 268.6C415.4 339.1 327 380.9 243 420.9C159 460.9 79.5 499 0 537.2L0 0Z" fill="#f9f9f9"></path><path d="M268.6 0C263.1 49.5 257.5 99.1 232.6 134.3C207.7 169.5 163.5 190.4 121.5 210.4C79.5 230.4 39.8 249.5 0 268.6L0 0Z" fill="#f4f4f4"></path></g></svg>