<svg id="visual" viewBox="0 0 960 30" width="960" height="30" xmlns="http://www.w3.org/2000/svg" xmlns:xlink="http://www.w3.org/1999/xlink" version="1.1"><rect x="0" y="0" width="960" height="30" fill="#ffffff"></rect><path d="M0 14L22.8 13.2C45.7 12.3 91.3 10.7 137 9.5C182.7 8.3 228.3 7.7 274 7C319.7 6.3 365.3 5.7 411.2 7.3C457 9 503 13 548.8 14.8C594.7 16.7 640.3 16.3 686 15.3C731.7 14.3 777.3 12.7 823 12.3C868.7 12 914.3 13 937.2 13.5L960 14L960 0L937.2 0C914.3 0 868.7 0 823 0C777.3 0 731.7 0 686 0C640.3 0 594.7 0 548.8 0C503 0 457 0 411.2 0C365.3 0 319.7 0 274 0C228.3 0 182.7 0 137 0C91.3 0 45.7 0 22.8 0L0 0Z" fill="#212429" stroke-linecap="round" stroke-linejoin="miter"></path></svg>