<svg id="visual" viewBox="0 0 960 50" width="960" height="50" xmlns="http://www.w3.org/2000/svg" xmlns:xlink="http://www.w3.org/1999/xlink" version="1.1"><rect x="0" y="0" width="960" height="50" fill="#ffffff"></rect><path d="M0 24L22.8 24.3C45.7 24.7 91.3 25.3 137 22.2C182.7 19 228.3 12 274 8C319.7 4 365.3 3 411.2 4.5C457 6 503 10 548.8 14.5C594.7 19 640.3 24 686 23.3C731.7 22.7 777.3 16.3 823 12.2C868.7 8 914.3 6 937.2 5L960 4L960 0L937.2 0C914.3 0 868.7 0 823 0C777.3 0 731.7 0 686 0C640.3 0 594.7 0 548.8 0C503 0 457 0 411.2 0C365.3 0 319.7 0 274 0C228.3 0 182.7 0 137 0C91.3 0 45.7 0 22.8 0L0 0Z" fill="#212529" stroke-linecap="round" stroke-linejoin="miter"></path></svg>