<svg id="visual" viewBox="0 0 960 50" width="960" height="50" xmlns="http://www.w3.org/2000/svg" xmlns:xlink="http://www.w3.org/1999/xlink" version="1.1"><rect x="0" y="0" width="960" height="50" fill="#f7f7f7"></rect><path d="M0 24L26.7 21.7C53.3 19.3 106.7 14.7 160 12.3C213.3 10 266.7 10 320 10.3C373.3 10.7 426.7 11.3 480 13C533.3 14.7 586.7 17.3 640 18.7C693.3 20 746.7 20 800 18.3C853.3 16.7 906.7 13.3 933.3 11.7L960 10L960 0L933.3 0C906.7 0 853.3 0 800 0C746.7 0 693.3 0 640 0C586.7 0 533.3 0 480 0C426.7 0 373.3 0 320 0C266.7 0 213.3 0 160 0C106.7 0 53.3 0 26.7 0L0 0Z" fill="#726bc6" stroke-linecap="round" stroke-linejoin="miter"></path></svg>