<svg id="visual" viewBox="0 0 960 50" width="960" height="50" xmlns="http://www.w3.org/2000/svg" xmlns:xlink="http://www.w3.org/1999/xlink" version="1.1"><rect x="0" y="0" width="960" height="50" fill="#f7f7f7"></rect><path d="M0 21L26.7 20.5C53.3 20 106.7 19 160 18.3C213.3 17.7 266.7 17.3 320 16.2C373.3 15 426.7 13 480 11.7C533.3 10.3 586.7 9.7 640 11C693.3 12.3 746.7 15.7 800 17.3C853.3 19 906.7 19 933.3 19L960 19L960 0L933.3 0C906.7 0 853.3 0 800 0C746.7 0 693.3 0 640 0C586.7 0 533.3 0 480 0C426.7 0 373.3 0 320 0C266.7 0 213.3 0 160 0C106.7 0 53.3 0 26.7 0L0 0Z" fill="#726bc6" stroke-linecap="round" stroke-linejoin="miter"></path></svg>