<svg id="visual" viewBox="0 0 960 50" width="960" height="50" xmlns="http://www.w3.org/2000/svg" xmlns:xlink="http://www.w3.org/1999/xlink" version="1.1"><rect x="0" y="0" width="960" height="50" fill="#f7f7f7"></rect><path d="M0 28L22.8 26C45.7 24 91.3 20 137 16C182.7 12 228.3 8 274 10.3C319.7 12.7 365.3 21.3 411.2 24.3C457 27.3 503 24.7 548.8 20.3C594.7 16 640.3 10 686 10.5C731.7 11 777.3 18 823 21.5C868.7 25 914.3 25 937.2 25L960 25L960 0L937.2 0C914.3 0 868.7 0 823 0C777.3 0 731.7 0 686 0C640.3 0 594.7 0 548.8 0C503 0 457 0 411.2 0C365.3 0 319.7 0 274 0C228.3 0 182.7 0 137 0C91.3 0 45.7 0 22.8 0L0 0Z" fill="#993233" stroke-linecap="round" stroke-linejoin="miter"></path></svg>