<svg id="visual" viewBox="0 0 960 300" width="960" height="300" xmlns="http://www.w3.org/2000/svg" xmlns:xlink="http://www.w3.org/1999/xlink" version="1.1"><rect x="0" y="0" width="960" height="300" fill="#ffffff"></rect><path d="M0 188L20 184.2C40 180.3 80 172.7 120 171C160 169.3 200 173.7 240 180C280 186.3 320 194.7 360 190.5C400 186.3 440 169.7 480 159C520 148.3 560 143.7 600 143.8C640 144 680 149 720 154.3C760 159.7 800 165.3 840 173.2C880 181 920 191 940 196L960 201L960 301L940 301C920 301 880 301 840 301C800 301 760 301 720 301C680 301 640 301 600 301C560 301 520 301 480 301C440 301 400 301 360 301C320 301 280 301 240 301C200 301 160 301 120 301C80 301 40 301 20 301L0 301Z" fill="#000000" stroke-linecap="round" stroke-linejoin="miter"></path></svg>