<svg id="visual" viewBox="0 0 960 50" width="960" height="50" xmlns="http://www.w3.org/2000/svg" xmlns:xlink="http://www.w3.org/1999/xlink" version="1.1"><rect x="0" y="0" width="960" height="50" fill="#ffffff"></rect><path d="M0 30L32 27.8C64 25.7 128 21.3 192 20C256 18.7 320 20.3 384 25.3C448 30.3 512 38.7 576 40C640 41.3 704 35.7 768 31.3C832 27 896 24 928 22.5L960 21L960 51L928 51C896 51 832 51 768 51C704 51 640 51 576 51C512 51 448 51 384 51C320 51 256 51 192 51C128 51 64 51 32 51L0 51Z" fill="#000000" stroke-linecap="round" stroke-linejoin="miter"></path></svg>