<svg id="visual" viewBox="0 0 960 150" width="960" height="150" xmlns="http://www.w3.org/2000/svg" xmlns:xlink="http://www.w3.org/1999/xlink" version="1.1"><rect x="0" y="0" width="960" height="150" fill="#f7f7f7"></rect><path d="M0 71L22.8 71.2C45.7 71.3 91.3 71.7 137 75C182.7 78.3 228.3 84.7 274 89C319.7 93.3 365.3 95.7 411.2 90.3C457 85 503 72 548.8 66.7C594.7 61.3 640.3 63.7 686 66C731.7 68.3 777.3 70.7 823 69.7C868.7 68.7 914.3 64.3 937.2 62.2L960 60L960 151L937.2 151C914.3 151 868.7 151 823 151C777.3 151 731.7 151 686 151C640.3 151 594.7 151 548.8 151C503 151 457 151 411.2 151C365.3 151 319.7 151 274 151C228.3 151 182.7 151 137 151C91.3 151 45.7 151 22.8 151L0 151Z" fill="#726bc6" stroke-linecap="round" stroke-linejoin="miter"></path></svg>